<?xml version="1.0" standalone="no"?>
<!DOCTYPE svg PUBLIC "-//W3C//DTD SVG 20010904//EN"
 "http://www.w3.org/TR/2001/REC-SVG-20010904/DTD/svg10.dtd">
<svg version="1.0" xmlns="http://www.w3.org/2000/svg"
 width="390.000000pt" height="390.000000pt" viewBox="0 0 390.000000 390.000000"
 preserveAspectRatio="xMidYMid meet">
<metadata>
Created by potrace 1.11, written by Peter Selinger 2001-2013
</metadata>
<g transform="translate(0.000000,390.000000) scale(0.100000,-0.100000)"
fill="#000000" stroke="none">
<path d="M1855 3702 c-16 -8 -33 -20 -37 -26 -4 -6 -8 -8 -8 -3 0 7 -80 -30
-90 -42 -3 -3 -9 -7 -15 -8 -5 -1 -62 -26 -125 -57 -93 -45 -109 -56 -85 -57
49 -2 129 -8 156 -12 19 -3 25 -11 29 -38 3 -19 5 -297 4 -619 l-1 -585 -89
-32 c-121 -43 -127 -44 -144 -48 -8 -1 -58 -17 -110 -35 -52 -17 -102 -33
-110 -35 -8 -3 -55 -18 -104 -35 -49 -17 -91 -28 -94 -26 -3 3 -5 144 -5 313
l0 308 80 120 c43 66 82 125 86 131 3 6 -19 -2 -51 -17 -87 -43 -246 -116
-270 -123 -12 -4 -22 -12 -22 -17 0 -5 -9 -9 -20 -9 -20 0 -20 -7 -20 -1133
l0 -1133 63 -29 c34 -16 97 -46 141 -67 43 -21 84 -35 90 -31 6 3 8 2 3 -2 -6
-8 52 -40 59 -32 3 3 -42 94 -103 207 l-34 64 -2 501 c-1 275 0 551 3 614 l5
113 35 14 c94 35 602 195 607 190 10 -10 8 -476 -2 -476 -5 -1 -30 -18 -55
-40 l-44 -39 154 -74 c85 -41 156 -73 158 -72 5 5 6 2384 1 2388 -2 2 -17 -3
-34 -11z"/>
<path d="M2105 3350 c-5 -8 -9 -100 -6 -172 l1 -38 113 -54 c61 -29 173 -83
247 -119 188 -90 374 -178 448 -212 l62 -29 0 -612 0 -612 -37 -18 c-121 -57
-277 -130 -338 -159 -208 -97 -251 -117 -265 -126 -8 -5 -24 -13 -35 -18 -44
-19 -154 -71 -224 -104 l-74 -36 -36 18 c-20 10 -58 29 -86 41 -27 12 -111 52
-185 87 -320 154 -446 213 -455 213 -4 0 -5 -50 -3 -111 2 -87 6 -114 18 -120
8 -5 65 -32 125 -60 128 -60 228 -107 375 -177 196 -93 239 -112 249 -112 6 0
50 19 98 41 49 23 124 58 168 79 44 21 130 61 190 90 61 29 146 69 190 90 44
21 154 74 245 117 91 44 192 93 226 108 l61 28 1 741 2 742 -77 36 c-43 21
-132 63 -198 95 -66 31 -125 57 -130 58 -6 0 -21 8 -35 18 -13 9 -28 17 -31
17 -4 0 -63 26 -131 59 -315 150 -364 173 -373 174 -5 1 -12 4 -15 7 -15 15
-80 38 -85 30z"/>
<path d="M2303 2796 c-11 -19 -141 -163 -175 -194 l-28 -25 0 -462 0 -462 48
-33 c26 -19 87 -65 135 -103 l88 -68 143 67 c92 42 148 74 155 88 18 35 55 99
76 131 17 24 20 48 22 150 l2 120 -22 -26 c-31 -37 -44 -54 -112 -143 -49 -64
-70 -83 -115 -104 -30 -14 -56 -24 -58 -23 -2 2 -13 -4 -25 -11 -35 -23 -56
-28 -63 -16 -4 7 -3 8 4 4 7 -4 12 -5 12 -2 0 2 -18 15 -40 27 -22 13 -40 27
-40 31 0 5 -4 6 -10 3 -7 -4 -10 119 -10 363 l0 368 43 48 43 49 114 -59 114
-59 83 -118 82 -119 0 122 c0 97 -2 122 -14 126 -8 4 -13 9 -11 13 2 3 -19 44
-48 91 -44 71 -60 89 -102 110 -72 37 -270 130 -277 130 -3 0 -10 -6 -14 -14z"/>
</g>
</svg>
